<svg xmlns="http://www.w3.org/2000/svg" xmlns:xlink="http://www.w3.org/1999/xlink" width="42" height="41" viewBox="0 0 42 41"><defs><path id="ne2ja" d="M62.43 59.15c.28 0 .55-.02.82-.05-.05.66-.2 2-.45 2.9l-.06.15.01.01c-.06.2-.13.37-.2.5-.5-.72-.87-3.1-.93-3.56.27.03.55.05.81.05zm5.85 10.22l-.11-.19h.11zm-5.84-5.28l2.45 1.05-.44 1.12a6.71 6.71 0 0 0-4.04 0l-.43-1.12zm-4.81 3.9H56l-.41-.97 1.7-.73.67 1.37c-.12.1-.24.21-.34.32zm9.27-.33l.67-1.37 1.69.72-.91 1.82h-.4c-.3-.43-.66-.82-1.05-1.17zm-7.26-23.98l-15.6 6.78a.24.24 0 0 1-.31-.13L43 48.7a.24.24 0 0 1 .13-.32l1.26-.54c.02-.01.04 0 .07-.02l12.86-5.55.06-.04 1.25-.54a.24.24 0 0 1 .31.12l.72 1.65c.03.08.02.17-.03.23zm-2.38-1.8l-.04.03-.02.03-12.87 5.55h-.04c-.05 0-.1-.01-.11-.06l-.32-.72a.11.11 0 0 1 .06-.15l12.87-5.55a.12.12 0 0 1 .09 0c.03 0 .05.03.06.06l.31.72c.02.03.02.06 0 .08zm.06 15.62l-.29.12-.16-.41.45.29zm-4.73-7.4l-7.16 3.09-.29-.55 7.83-3.38c-.16.29-.28.56-.38.83zm.69-1.35l-8.29 3.58-.25-.56 9.28-4.01c-.28.33-.53.66-.74.99zm1.3-1.61l-9.98 4.3-.27-.72 12.3-5.35-.12.09c-.7.51-1.35 1.08-1.92 1.68zM61.06 59l-2.97 1.3-.2-.52 2.31-.99c.29.09.58.16.86.21zm-1.36-.37l-1.94.82-.24-.59 1.33-.57c.28.12.56.24.85.34zm2.16 3.26l-2.7 1.15-.23-.6 2.75-1.18c.05.22.11.43.18.63zM50.38 52.1l-4.47 1.93-.31-.53 6.2-2.68-1.26.55a.45.45 0 0 0-.24.25.44.44 0 0 0 .01.35zm8.04 6l-1.03.43-.23-.58.54-.23.72.37zm-5.93-1.67l-3.4 1.48a5.1 5.1 0 0 0-.26-.24l-.23-.23 3.62-1.56zm.42.87l-3.15 1.36a8 8 0 0 0-.42-.49l3.3-1.42zm.43.87l-3.03 1.3c-.1-.18-.22-.36-.33-.52l3.09-1.33zm.42.87l-3.04 1.3c-.07-.19-.15-.38-.24-.56l3.01-1.3zm-2.11-4.34l-4 1.73a16.8 16.8 0 0 1-.41-.5l4.14-1.78zm2.54 5.2l-3.1 1.34a9.5 9.5 0 0 1-.25-.56l3.07-1.33zm7.4 1.02l-2.8 1.2-.22-.56 2.9-1.24.12.6zM50.8 52.97l-4.36 1.88-.35-.52 4.44-1.92zm1.27 2.6l-3.73 1.6c-.16-.15-.3-.3-.45-.47l3.9-1.68zm10.1 7.15l-2.69 1.17-.2-.53 2.68-1.13c.07.18.14.35.22.49zm-7.3 3.56l2-.87.27.56-1.74.76-.53-.45zm1.85-1.18l-2.13.92-.47-.46 2.34-1zm4.68-5.13l-2.96 1.27-.23-.62 3.08-1.34.11.7zm.63 3.9l-2.18.95-.24-.6 2.73-1.2.02.05zm-7-2.24l-3 1.3-.32-.52 3.06-1.3zm.43.88l-2.87 1.23c-.13-.17-.24-.34-.36-.52l2.95-1.28zm-.84-1.72l-3.08 1.31-.3-.55 3.1-1.33zm1.26 2.58l-2.68 1.16-.4-.5 2.81-1.2zm.42.88l-2.44 1.04-.43-.48 2.6-1.12zm-5.08-10.42l-4.2 1.82-.38-.5 4.31-1.87zm8.83 12.56c-.64.25-1.25.6-1.78 1.01l-.58-1.18 1.96-.85zm-6.4-12.12l-1.47.64-.03-.05-.15-.31-.27-.55-.15-.32-.27-.55-.16-.32-.27-.55-.15-.31-.07-.15v-.04c0-.01.01-.03.04-.04l1.7-.75v.26a3.4 3.4 0 0 0 .16.98 4.97 4.97 0 0 0 .53 1.2 7.75 7.75 0 0 0 .54.82l.03.04zm.26 4.2l2.6-1.14.17.45.13.32.22.59.13.32.23.6.13.32.2.52.13.33.24.6.13.33.22.56.13.33.23.59.13.32.2.53.13.33.23.6.02.04-1.99.87-.02-.06-.28-.56-.15-.32-.26-.53-.15-.31-.28-.56-.15-.32-.27-.54-.15-.32-.28-.57-.15-.32-.26-.52-.15-.31-.28-.57-.15-.31-.27-.56-.16-.32zM53 56.6l-.16-.32-.27-.55-.15-.31-.08-.16 1.56-.68.12.14a11.24 11.24 0 0 0 1.78 1.72l.5.38.03.06.03.1-2.62 1.14-.05-.1-.27-.56-.15-.31zm13.23-14.92l1.24.54.06.04L80.4 47.8l.07.02 1.26.54c.12.05.18.2.12.32l-.71 1.64a.24.24 0 0 1-.32.13l-14.37-6.24c-.4-.24-.82-.43-1.26-.6a.24.24 0 0 1 0-.17l.72-1.65a.24.24 0 0 1 .32-.12zm1.38.2a.11.11 0 0 1 0-.1l.32-.71a.11.11 0 0 1 .14-.06l12.87 5.55c.06.03.09.1.06.15l-.31.72c-.02.05-.07.07-.11.06h-.04l-12.87-5.55-.02-.03-.04-.04zm12.66 9.56L69.05 46.6a8.07 8.07 0 0 0-1.28-1.43l12.77 5.54-.27.73zm-12.09 5.28l.02-.01-.01.02zm-.27.27l.15.06-.22.57-.45-.2c.18-.13.35-.28.52-.43zm2.55-6.06l-.01-.2.07.04zm-3.4 6.74l.65.28-.23.58-1.06-.45c.22-.13.44-.26.64-.4zm2.31-10.55l10.76 4.65-.25.56-10.06-4.35c-.13-.3-.28-.58-.45-.86zM66.02 58.3l1.33.57-.23.6-1.9-.82c.27-.1.54-.22.8-.35zm-2.43 1l3.07 1.33-.24.61-2.9-1.24.07-.7zm1.13-.48l2.27.97-.2.52L63.84 59c.3-.05.6-.11.88-.2zm-1.25 1.55l2.82 1.2-.22.56-2.69-1.16.1-.6zm10.02-6.21l4.14 1.78-.41.5-4-1.73zm-3.5-5.71l9.73 4.2c-.08.18-.18.36-.28.55l-9.22-3.98a7.9 7.9 0 0 0-.23-.77zm2.23 8.3l3.3 1.43c-.13.14-.27.3-.42.5l-3.15-1.37zm-.42.88l3.09 1.33a6.6 6.6 0 0 0-.34.52l-3.02-1.3zm-.42.86l3 1.3c-.08.18-.17.37-.23.57l-3.04-1.31zm1.69-3.46l3.9 1.68-.44.48-3.73-1.61zm-2.12 4.33l3.08 1.33-.25.56-3.1-1.33zm2.96-6.07l4.31 1.86-.37.5-4.2-1.8zm-3.48-2.93a7.98 7.98 0 0 0-.11-.72l.95.41a.46.46 0 0 0-.32 0 .44.44 0 0 0-.24.25l-.06.15zm2.64.47l6.2 2.68-.31.53-4.47-1.93.06-.13c.06-.1.06-.23.02-.35a.45.45 0 0 0-.25-.25zm1.27 1.6l4.43 1.91-.34.52-4.36-1.88zm-1.7 3.46l3.62 1.56-.22.22-.26.25-3.4-1.48zM68 65.41l2 .87-.53.44-1.75-.75zm2.53-5.19l3.1 1.33-.3.55-3.08-1.31zm-7.45 2.08l2.5 1.06-.2.53-2.5-1.1c.07-.13.14-.3.2-.5zm2.87.15l-.24.59-2.53-1.08.14-.64zm-.7 1.76l-.23.6-2.14-.92-.22-.1-.19-.07.02-.04.05-.14.1-.23.07-.2.04.01zm4.44-2.27l2.95 1.28-.36.52-2.87-1.23zm-1.28 2.62l2.34 1-.47.46-2.13-.92zm1.69-3.46l3.05 1.31-.32.52-2.99-1.3zm-1.26 2.59l2.6 1.12-.44.48-2.44-1.04zm.42-.86l2.8 1.2-.4.5L69 63.37zm-4.05 2.54l1.96.85-.57 1.18a6.72 6.72 0 0 0-1.79-1zM72.7 54.9l-2.67-1.16.02-.04a8.43 8.43 0 0 0 .26-.94l.05-.36.05-.27.12-.32.13-.33.22-.57.13-.32.07-.17c0-.02.02-.02.03-.03h.06l3 1.32c.03 0 .04.03.05.04v.04l-.07.15-.16.31-.27.55-.15.32-.27.55-.15.32-.27.55-.16.31zm-5.35 5.02l.13-.33.23-.59.13-.32.23-.59.13-.32.17-.45 2.6 1.14-.2.41-.16.32-.27.56-.16.31-.27.57-.16.31-.25.52-.15.32-.28.57-.16.32-.26.54-.16.32-.27.56-.15.31-.26.53-.16.32-.27.56-.03.06-1.99-.87.02-.05.24-.6.12-.32.21-.53.13-.32.23-.6.13-.32.22-.56.12-.32.24-.61.13-.33zm2.55-5.82l2.63 1.15-.08.16-.15.31-.27.55-.15.32-.27.55-.15.31-.27.56-.06.1-2.62-1.14.04-.1.22-.57.13-.33.08-.2a7.85 7.85 0 0 0 .7-1.18l.15-.32.07-.17zm-7.65-5.81a.2.2 0 0 1 .4 0 .2.2 0 0 1-.4 0zm.4 5.54a.2.2 0 1 1-.4 0 .2.2 0 0 1 .4 0zm-1.4-2.7a1.2 1.2 0 0 1 2.4 0 1.2 1.2 0 0 1-2.4 0zm1.2 4.52c.41 0 .82-.06 1.2-.17l.2-.05.17-.07a4.54 4.54 0 0 0 2.95-4.04v-.2-.18a4.5 4.5 0 0 0-2.06-3.6 4.6 4.6 0 0 0-.17-.1l-.16-.1a4.51 4.51 0 0 0-4.27 0l-.17.1a4.6 4.6 0 0 0-1.35 1.22 4.46 4.46 0 0 0-.87 2.48l-.01.19v.19a4.5 4.5 0 0 0 2.95 4.04l.19.07.18.05c.39.1.8.17 1.21.17zm1.18 1.71l-.18.03a6.46 6.46 0 0 1-2.01 0l-.18-.03-.18-.03a6.44 6.44 0 0 1-2.4-1.1c-.1-.07-.22-.15-.32-.24a6.61 6.61 0 0 1-1.62-2.06l-.15-.32a6.34 6.34 0 0 1-.22-.57l-.09-.35c-.05-.2-.1-.4-.12-.61l-.05-.36-.03-.6v-.06l.02-.39a6.29 6.29 0 0 1 3.66-5.3l.17-.07.17-.07a6.34 6.34 0 0 1 4.69 0l.16.07.17.08a6.39 6.39 0 0 1 3.67 5.3l.02.38v.07c0 .2-.01.4-.03.59l-.05.36c-.03.2-.07.41-.12.61l-.1.35-.2.57-.16.32A6.25 6.25 0 0 1 66.5 56a6.45 6.45 0 0 1-2.9 1.37zm-1.19-10.4a4.16 4.16 0 0 1 4.17 3.82l.02.35v.04a4.16 4.16 0 0 1-2.56 3.8l-.19.07-.18.07a4.2 4.2 0 0 1-2.51 0l-.19-.07-.18-.07a4.2 4.2 0 0 1-2.56-3.8v-.04a4.15 4.15 0 0 1 .75-2.38 4.2 4.2 0 0 1 3.43-1.8zm.55 6.87a.55.55 0 1 0-1.1 0 .55.55 0 0 0 1.1 0zm-1.1-5.54a.55.55 0 0 0 1.1 0 .55.55 0 0 0-1.1 0zm-1 2.84a1.55 1.55 0 0 0 3.1 0 1.55 1.55 0 0 0-3.1 0zm1.55 6.7a6.72 6.72 0 0 0 1.15-.11l.18-.03a6.65 6.65 0 0 0 1.84-.66l.37-.22a6.66 6.66 0 0 0 1.37-1.13l.25-.27c.14-.16.26-.33.38-.5l.2-.3.29-.54.15-.32.22-.58.1-.33c.04-.2.09-.4.12-.62l.06-.35.04-.66v-.08l-.01-.3a6.67 6.67 0 0 0-.07-.7l-.07-.41a6.64 6.64 0 0 0-1.22-2.62 6.79 6.79 0 0 0-2.63-2.09l-.17-.07-.16-.07a6.7 6.7 0 0 0-4.77 0l-.17.07-.17.07a6.72 6.72 0 0 0-3.84 4.71l-.07.41c-.04.23-.06.46-.07.7l-.01.3v.08c0 .22.01.44.04.66l.05.35.13.62c.04.1.06.22.1.34.06.2.13.38.21.57l.16.32.3.54.18.3.38.5.25.27a6.78 6.78 0 0 0 1.37 1.13l.37.22a6.85 6.85 0 0 0 1.85.66l.18.03.18.03c.31.04.63.07.96.07zm1.22.85l-.18.03-.18.03a7.79 7.79 0 0 1-1.72-.01l-.17-.03-.18-.03a8.6 8.6 0 0 1-1.95-.57 11.17 11.17 0 0 1-1.57-.78 13.65 13.65 0 0 1-1.33-.87l-.23-.17-.06-.05a14.65 14.65 0 0 1-1.74-1.65 8.46 8.46 0 0 1-.37-.46l-.03-.04a9.77 9.77 0 0 1-.7-1.12 5.3 5.3 0 0 1-.36-.9 3.7 3.7 0 0 1-.14-.93v-.06a2.2 2.2 0 0 1 .08-.5l.07-.23c.05-.15.1-.3.18-.46a6.8 6.8 0 0 1 .87-1.43 12.24 12.24 0 0 1 1.6-1.74 14.67 14.67 0 0 1 4.23-2.7h.01l.17-.06c.83-.3 1.68-.48 2.48-.48.88 0 1.71.15 2.5.42l.04.02.12.04a7.7 7.7 0 0 1 5 6.62c.01.19.03.37.03.56l-.01.12-.02.37-.01.27-.06.37-.05.36-.05.2a7.41 7.41 0 0 1-.2.74l-.02.04-.13.36-.07.17-.15.32-.26.48-.03.06a8.15 8.15 0 0 1-.47.7l-.09.11-.22.29-.44.47-.29.26c-.17.16-.35.3-.53.44l-.33.24a7.75 7.75 0 0 1-3.04 1.18zm-9.86-7.68a.55.55 0 0 0 .5.68h.03a.56.56 0 0 0 .34-.12.54.54 0 0 0 .2-.36l.01-.07c0-.2-.11-.38-.28-.48a.54.54 0 0 0-.27-.07h-.04a.55.55 0 0 0-.35.17.54.54 0 0 0-.14.25zm.73.13l-.01.05a.2.2 0 0 1-.15.14h-.04a.2.2 0 0 1-.2-.2.2.2 0 0 1 .1-.15.2.2 0 0 1 .1-.04c.04 0 .07.01.1.03.06.04.1.1.1.17zm-.74 15.83v11.36l-.03.02-1.49-.02.03-11.39zm1.94 5.68c0 1.64.6 3.15 1.59 4.32h-3.18v-8.64h3.18a6.68 6.68 0 0 0-.5.68l-.11.17a6.63 6.63 0 0 0-.98 3.47zm13.43 0c0-.8-.15-1.55-.4-2.26l1.77 1.84c.05.05.08.12.08.19v2.86c0 .15-.13.28-.28.28h-1.84c.42-.88.67-1.87.67-2.91zm-1.84-2.81a.2.2 0 1 1-.34.2.2.2 0 0 1 .34-.2zm-6.36 2.8a1.48 1.48 0 0 1 2.96 0 1.48 1.48 0 0 1-2.96 0zm-2.75-2.43a.55.55 0 0 0-.2-.74l-.1-.04a.53.53 0 0 0-.18-.03l-.14.01-.03.02a.54.54 0 0 0-.3.24c-.15.26-.06.6.2.74l.1.04c.06.02.11.04.17.04.06 0 .12-.02.18-.04a.54.54 0 0 0 .3-.24zm-.3-2.01l.23-.21.14-.14.16-.13a6.35 6.35 0 0 1 1.93-1.07l.18-.06a6.37 6.37 0 0 1 3.78 0l.18.06.19.07c.64.24 1.23.58 1.75 1l.15.13.15.14c.28.25.54.54.77.84l.13.18a6.96 6.96 0 0 1 .38.6c.07.12.12.24.18.37.03.05.06.1.08.17l.1.24a6.65 6.65 0 0 1 .42 2.26 6.29 6.29 0 0 1-.6 2.67l-.18.36A6.37 6.37 0 0 1 57.9 77.1l-.18-.2-.17-.19a6.3 6.3 0 0 1-.32-7.7l.13-.18.19-.25.17-.19.18-.19zm-.18 7.7c.06 0 .12 0 .18-.03.03 0 .07-.02.1-.04a.55.55 0 0 0 .2-.74.54.54 0 0 0-.3-.24l-.03-.02h-.15a.53.53 0 0 0-.17.02l-.1.04a.55.55 0 0 0-.2.74c.07.12.18.2.3.24a.53.53 0 0 0 .17.04zm4.71 1.27a4.53 4.53 0 0 0 2.9-7.99l-.22-.17a4.6 4.6 0 0 0-2.68-.88 4.51 4.51 0 0 0-2.67.88c-.08.05-.16.1-.23.17a4.5 4.5 0 0 0-1.63 3.44v.06a4.53 4.53 0 0 0 4.53 4.49zm.2.9a.2.2 0 0 1-.4 0 .2.2 0 0 1 .4 0zm4.24-8.6a.55.55 0 1 0 .55.94c.17-.1.25-.27.26-.45 0-.1 0-.2-.06-.3a.54.54 0 0 0-.34-.25h-.02a.54.54 0 0 0-.4.06zm-3.89 8.6a.55.55 0 0 0-1.1 0 .55.55 0 0 0 1.1 0zm4.64-2.44a.55.55 0 0 0-.62-.8.54.54 0 0 0-.13 1 .55.55 0 0 0 .75-.2zm-1-2.98A4.18 4.18 0 1 1 60.4 69a4.17 4.17 0 0 1 4.35.17 4.17 4.17 0 0 1 1.87 3.47zm-6.02 0a1.83 1.83 0 0 0 3.66 0 1.83 1.83 0 0 0-3.66 0zm6.71 2.8a.2.2 0 0 1-.27.08.2.2 0 1 1 .27-.07zm-4.33-8.22a.55.55 0 0 0-1.1 0 .55.55 0 0 0 1.1 0zm-.35 0a.2.2 0 1 1-.4 0 .2.2 0 0 1 .4 0zm-4.86 7.94c.06.01.1.05.12.1a.2.2 0 0 1 0 .17.2.2 0 0 1-.07.09.2.2 0 0 1-.1.02.2.2 0 0 1-.17-.1.2.2 0 0 1 0-.17.2.2 0 0 1 .07-.1.2.2 0 0 1 .1-.02h.05zm-.05-5.04v-.39a.2.2 0 0 1 .1.03.2.2 0 0 1 .08.09c.02.05.03.11 0 .16v.02a.2.2 0 0 1-.18.1zm0-.39v.4a.2.2 0 0 1-.1-.03.2.2 0 0 1-.07-.09.2.2 0 0 1 0-.17v-.01a.2.2 0 0 1 .17-.1z"/></defs><g><g transform="translate(-41 -39)"><use fill="#e3a062" xlink:href="#ne2ja"/></g></g></svg>